<svg width="227" height="235" viewBox="0 0 227 235" fill="none" xmlns="http://www.w3.org/2000/svg">
<path d="M105.673 14C120.162 13.9978 134.157 19.2679 145.045 28.8267C155.934 38.3855 162.973 51.5799 164.847 65.9473L181.628 92.3423C182.732 94.0801 182.508 96.6682 179.95 97.772L165.339 104.022V125.875C165.339 129.831 163.768 133.625 160.97 136.423C158.173 139.22 154.379 140.792 150.423 140.792H135.513L135.506 163.167H68.381V135.616C68.381 126.815 65.1292 118.484 59.0954 110.966C52.0674 102.191 47.6616 91.6087 46.3856 80.4388C45.1096 69.269 47.0153 57.9659 51.8831 47.8318C56.751 37.6978 64.3829 29.1453 73.8995 23.1597C83.4161 17.174 94.4302 13.9989 105.673 14ZM101.72 56.9824C99.2586 54.6043 95.9619 53.2881 92.5397 53.3171C89.1174 53.3462 85.8435 54.7182 83.4231 57.1377C81.0026 59.5571 79.6293 62.8305 79.5989 66.2527C79.5684 69.6749 80.8833 72.9722 83.2604 75.4343L105.673 97.854L128.085 75.4343C129.331 74.23 130.325 72.7896 131.009 71.1971C131.693 69.6045 132.053 67.8917 132.067 66.1587C132.082 64.4256 131.751 62.707 131.095 61.1031C130.438 59.4992 129.469 58.0421 128.243 56.8168C127.017 55.5916 125.56 54.6227 123.956 53.9668C122.351 53.3108 120.633 52.9809 118.9 52.9964C117.167 53.0118 115.454 53.3722 113.862 54.0565C112.269 54.7409 110.829 55.7355 109.626 56.9824L105.673 60.9353L101.72 56.9824Z" fill="#2260FF"/>
<path d="M105.125 74.5H111.312L113.375 66.25L118.875 82.75L121.625 70.375L123.688 74.5H129.875" stroke="#2260FF" stroke-width="2" stroke-linecap="round" stroke-linejoin="round"/>
<path d="M13.4735 191.744C15.4415 191.744 17.1615 191.96 18.6335 192.392C20.1055 192.824 21.2895 193.28 22.1855 193.76C23.0815 194.24 23.6255 194.56 23.8175 194.72L20.3615 200.504C20.1055 200.312 19.6655 200.032 19.0415 199.664C18.4335 199.296 17.7055 198.968 16.8575 198.68C16.0255 198.392 15.1535 198.248 14.2415 198.248C13.0095 198.248 12.0095 198.472 11.2415 198.92C10.4895 199.352 10.1135 200 10.1135 200.864C10.1135 201.456 10.3135 201.992 10.7135 202.472C11.1295 202.936 11.7535 203.384 12.5855 203.816C13.4335 204.232 14.5055 204.688 15.8015 205.184C16.9855 205.616 18.0975 206.128 19.1375 206.72C20.1775 207.312 21.0895 208.016 21.8735 208.832C22.6735 209.632 23.3055 210.56 23.7695 211.616C24.2335 212.672 24.4655 213.872 24.4655 215.216C24.4655 216.816 24.1375 218.208 23.4815 219.392C22.8255 220.56 21.9295 221.528 20.7935 222.296C19.6735 223.064 18.3935 223.632 16.9535 224C15.5295 224.384 14.0495 224.576 12.5135 224.576C10.3375 224.576 8.3855 224.328 6.6575 223.832C4.9455 223.336 3.5615 222.8 2.5055 222.224C1.4495 221.648 0.8175 221.264 0.6095 221.072L4.1855 215.048C4.3775 215.192 4.7455 215.424 5.2895 215.744C5.8495 216.064 6.5295 216.4 7.3295 216.752C8.1295 217.088 8.9775 217.376 9.8735 217.616C10.7855 217.856 11.6815 217.976 12.5615 217.976C14.0335 217.976 15.1375 217.696 15.8735 217.136C16.6095 216.56 16.9775 215.808 16.9775 214.88C16.9775 214.192 16.7455 213.576 16.2815 213.032C15.8175 212.488 15.1215 211.976 14.1935 211.496C13.2655 211 12.1055 210.48 10.7135 209.936C9.3215 209.376 8.0175 208.696 6.8015 207.896C5.6015 207.096 4.6255 206.096 3.8735 204.896C3.1215 203.696 2.7455 202.208 2.7455 200.432C2.7455 198.656 3.2415 197.12 4.2335 195.824C5.2415 194.512 6.5615 193.504 8.1935 192.8C9.8415 192.096 11.6015 191.744 13.4735 191.744ZM35.7249 213.416C35.7249 214.984 36.0209 216.24 36.6129 217.184C37.2049 218.112 38.1969 218.576 39.5889 218.576C41.0129 218.576 42.0129 218.112 42.5889 217.184C43.1809 216.24 43.4769 214.984 43.4769 213.416V204.296H50.6769V214.184C50.6769 216.296 50.2369 218.136 49.3569 219.704C48.4929 221.256 47.2369 222.456 45.5889 223.304C43.9409 224.152 41.9409 224.576 39.5889 224.576C37.2529 224.576 35.2609 224.152 33.6129 223.304C31.9649 222.456 30.7089 221.256 29.8449 219.704C28.9809 218.136 28.5489 216.296 28.5489 214.184V204.296H35.7249V213.416ZM61.7818 224H54.4858V204.296H61.7818V207.344H61.6618C61.7898 206.976 62.1018 206.512 62.5978 205.952C63.0938 205.376 63.7898 204.864 64.6858 204.416C65.5818 203.952 66.6778 203.72 67.9738 203.72C68.8858 203.72 69.7258 203.864 70.4938 204.152C71.2618 204.424 71.8218 204.688 72.1738 204.944L69.3418 210.872C69.1178 210.6 68.7178 210.32 68.1418 210.032C67.5818 209.728 66.8778 209.576 66.0298 209.576C65.0538 209.576 64.2458 209.824 63.6058 210.32C62.9818 210.816 62.5178 211.416 62.2138 212.12C61.9258 212.824 61.7818 213.488 61.7818 214.112V224ZM84.1569 234.536C82.7809 234.536 81.4129 234.416 80.0529 234.176C78.7089 233.936 77.4529 233.528 76.2849 232.952C75.1169 232.376 74.1329 231.584 73.3329 230.576L77.6049 226.136C77.9729 226.568 78.4209 226.992 78.9489 227.408C79.4929 227.824 80.1569 228.168 80.9409 228.44C81.7409 228.712 82.7089 228.848 83.8449 228.848C84.9009 228.848 85.8209 228.664 86.6049 228.296C87.3889 227.928 87.9969 227.392 88.4289 226.688C88.8769 225.984 89.1009 225.128 89.1009 224.12V223.64H96.2769V224.552C96.2769 226.728 95.7329 228.56 94.6449 230.048C93.5729 231.536 92.1249 232.656 90.3009 233.408C88.4769 234.16 86.4289 234.536 84.1569 234.536ZM89.1009 224V220.808C88.9569 221.128 88.5889 221.592 87.9969 222.2C87.4209 222.808 86.6529 223.36 85.6929 223.856C84.7329 224.336 83.6129 224.576 82.3329 224.576C80.4129 224.576 78.7329 224.112 77.2929 223.184C75.8529 222.24 74.7329 220.984 73.9329 219.416C73.1329 217.832 72.7329 216.08 72.7329 214.16C72.7329 212.24 73.1329 210.496 73.9329 208.928C74.7329 207.344 75.8529 206.08 77.2929 205.136C78.7329 204.192 80.4129 203.72 82.3329 203.72C83.5649 203.72 84.6449 203.92 85.5729 204.32C86.5009 204.704 87.2529 205.168 87.8289 205.712C88.4049 206.24 88.8049 206.728 89.0289 207.176V204.296H96.2769V224H89.1009ZM79.8849 214.16C79.8849 215.056 80.0929 215.864 80.5089 216.584C80.9249 217.288 81.4769 217.84 82.1649 218.24C82.8689 218.64 83.6449 218.84 84.4929 218.84C85.3729 218.84 86.1489 218.64 86.8209 218.24C87.4929 217.84 88.0209 217.288 88.4049 216.584C88.8049 215.864 89.0049 215.056 89.0049 214.16C89.0049 213.264 88.8049 212.464 88.4049 211.76C88.0209 211.04 87.4929 210.48 86.8209 210.08C86.1489 209.664 85.3729 209.456 84.4929 209.456C83.6449 209.456 82.8689 209.664 82.1649 210.08C81.4769 210.48 80.9249 211.04 80.5089 211.76C80.0929 212.464 79.8849 213.264 79.8849 214.16ZM101.194 224V204.296H108.49V224H101.194ZM104.938 200.24C103.786 200.24 102.81 199.84 102.01 199.04C101.21 198.224 100.81 197.256 100.81 196.136C100.81 195.016 101.21 194.048 102.01 193.232C102.826 192.4 103.802 191.984 104.938 191.984C105.69 191.984 106.378 192.176 107.002 192.56C107.626 192.928 108.13 193.424 108.514 194.048C108.898 194.672 109.09 195.368 109.09 196.136C109.09 197.256 108.682 198.224 107.866 199.04C107.05 199.84 106.074 200.24 104.938 200.24ZM120.692 233.984H113.468V204.296H120.764V207.176C120.988 206.728 121.412 206.24 122.036 205.712C122.676 205.168 123.484 204.704 124.46 204.32C125.452 203.92 126.572 203.72 127.82 203.72C129.74 203.72 131.38 204.192 132.74 205.136C134.116 206.08 135.172 207.344 135.908 208.928C136.644 210.496 137.012 212.24 137.012 214.16C137.012 216.08 136.62 217.832 135.836 219.416C135.052 220.984 133.948 222.24 132.524 223.184C131.116 224.112 129.452 224.576 127.532 224.576C126.156 224.576 124.98 224.336 124.004 223.856C123.044 223.36 122.284 222.816 121.724 222.224C121.18 221.616 120.836 221.144 120.692 220.808V233.984ZM129.884 214.16C129.884 213.264 129.684 212.464 129.284 211.76C128.884 211.04 128.34 210.48 127.652 210.08C126.98 209.664 126.22 209.456 125.372 209.456C124.492 209.456 123.7 209.664 122.996 210.08C122.308 210.48 121.764 211.04 121.364 211.76C120.964 212.464 120.764 213.264 120.764 214.16C120.764 215.056 120.964 215.864 121.364 216.584C121.764 217.288 122.308 217.84 122.996 218.24C123.7 218.64 124.492 218.84 125.372 218.84C126.22 218.84 126.98 218.64 127.652 218.24C128.34 217.84 128.884 217.288 129.284 216.584C129.684 215.864 129.884 215.056 129.884 214.16ZM146.512 215.696C146.56 216.4 146.784 217.024 147.184 217.568C147.584 218.112 148.136 218.544 148.84 218.864C149.56 219.168 150.408 219.32 151.384 219.32C152.312 219.32 153.144 219.224 153.88 219.032C154.632 218.84 155.28 218.6 155.824 218.312C156.384 218.024 156.816 217.728 157.12 217.424L159.952 221.936C159.552 222.368 158.984 222.792 158.248 223.208C157.528 223.608 156.576 223.936 155.392 224.192C154.208 224.448 152.712 224.576 150.904 224.576C148.728 224.576 146.792 224.168 145.096 223.352C143.4 222.536 142.064 221.336 141.088 219.752C140.112 218.168 139.624 216.232 139.624 213.944C139.624 212.024 140.04 210.296 140.872 208.76C141.72 207.208 142.944 205.984 144.544 205.088C146.144 204.176 148.072 203.72 150.328 203.72C152.472 203.72 154.328 204.112 155.896 204.896C157.48 205.68 158.696 206.848 159.544 208.4C160.408 209.936 160.84 211.856 160.84 214.16C160.84 214.288 160.832 214.544 160.816 214.928C160.816 215.312 160.8 215.568 160.768 215.696H146.512ZM153.976 211.88C153.96 211.368 153.824 210.864 153.568 210.368C153.312 209.856 152.928 209.44 152.416 209.12C151.904 208.784 151.248 208.616 150.448 208.616C149.648 208.616 148.968 208.776 148.408 209.096C147.864 209.4 147.448 209.8 147.16 210.296C146.872 210.792 146.712 211.32 146.68 211.88H153.976ZM173.058 224.576C171.154 224.576 169.498 224.112 168.09 223.184C166.682 222.24 165.586 220.984 164.802 219.416C164.034 217.832 163.65 216.08 163.65 214.16C163.65 212.24 164.034 210.496 164.802 208.928C165.586 207.344 166.682 206.08 168.09 205.136C169.498 204.192 171.154 203.72 173.058 203.72C174.322 203.72 175.442 203.92 176.418 204.32C177.394 204.704 178.186 205.168 178.794 205.712C179.402 206.24 179.77 206.728 179.898 207.176V190.976H187.194V224H179.97V220.808C179.666 221.4 179.17 221.992 178.482 222.584C177.794 223.16 176.986 223.632 176.058 224C175.13 224.384 174.13 224.576 173.058 224.576ZM175.29 218.84C176.17 218.84 176.954 218.64 177.642 218.24C178.346 217.84 178.898 217.288 179.298 216.584C179.698 215.864 179.898 215.056 179.898 214.16C179.898 213.264 179.698 212.464 179.298 211.76C178.898 211.04 178.346 210.48 177.642 210.08C176.954 209.664 176.17 209.456 175.29 209.456C174.442 209.456 173.674 209.664 172.986 210.08C172.314 210.48 171.778 211.04 171.378 211.76C170.994 212.464 170.802 213.264 170.802 214.16C170.802 215.056 170.994 215.864 171.378 216.584C171.778 217.288 172.314 217.84 172.986 218.24C173.674 218.64 174.442 218.84 175.29 218.84ZM191.662 224V204.296H198.958V224H191.662ZM195.406 200.24C194.254 200.24 193.278 199.84 192.478 199.04C191.678 198.224 191.278 197.256 191.278 196.136C191.278 195.016 191.678 194.048 192.478 193.232C193.294 192.4 194.27 191.984 195.406 191.984C196.158 191.984 196.846 192.176 197.47 192.56C198.094 192.928 198.598 193.424 198.982 194.048C199.366 194.672 199.558 195.368 199.558 196.136C199.558 197.256 199.15 198.224 198.334 199.04C197.518 199.84 196.542 200.24 195.406 200.24ZM219.273 224V220.808C219.129 221.128 218.761 221.592 218.169 222.2C217.593 222.808 216.825 223.36 215.865 223.856C214.905 224.336 213.785 224.576 212.505 224.576C210.585 224.576 208.905 224.112 207.465 223.184C206.025 222.24 204.905 220.984 204.105 219.416C203.305 217.832 202.905 216.08 202.905 214.16C202.905 212.24 203.305 210.496 204.105 208.928C204.905 207.344 206.025 206.08 207.465 205.136C208.905 204.192 210.585 203.72 212.505 203.72C213.737 203.72 214.817 203.92 215.745 204.32C216.673 204.704 217.425 205.168 218.001 205.712C218.577 206.24 218.977 206.728 219.201 207.176V204.296H226.449V224H219.273ZM210.057 214.16C210.057 215.056 210.265 215.864 210.681 216.584C211.097 217.288 211.649 217.84 212.337 218.24C213.041 218.64 213.817 218.84 214.665 218.84C215.545 218.84 216.321 218.64 216.993 218.24C217.665 217.84 218.193 217.288 218.577 216.584C218.977 215.864 219.177 215.056 219.177 214.16C219.177 213.264 218.977 212.464 218.577 211.76C218.193 211.04 217.665 210.48 216.993 210.08C216.321 209.664 215.545 209.456 214.665 209.456C213.817 209.456 213.041 209.664 212.337 210.08C211.649 210.48 211.097 211.04 210.681 211.76C210.265 212.464 210.057 213.264 210.057 214.16Z" fill="#2260FF"/>
</svg>
